# xmcd
#
# Track frame offsets: 
#        150
#        15270
#        31896
#        47949
#        63595
#        79253
#        102747
#        120710
#        134164
#        150833
#        169540
#        187013
#        202763
#        223496
#        246555
#        265117
#        286434
#        302322
#
# Disc length: 4218 seconds
#
# Revision: 0
# Processed by: cddbd v1.5.2PL0 Copyright (c) Steve Scherf et al.
# Submitted via: ExactAudioCopy v1.1
#
DISCID=05107812
DTITLE=Various Artist - Het Beste Uit de Q Top 1000 Editie 2018 - CD 4
DYEAR=2018
DGENRE=Top 40
TTITLE0=*Nsync - Bye Bye Bye
TTITLE1=Anouk - Lost
TTITLE2=Nothing But Thieves - Sorry
TTITLE3=UB40 - (I Can't Help) Falling In Love With You
TTITLE4=Robbie Williams - Love My Life
TTITLE5=2 Brothers On The 4th Floor - Come Take My Hand
TTITLE6=Rag'N'Bone Man - Skin
TTITLE7=Elvis Presley - In The Ghetto
TTITLE8=Kygo and Selena Gomez - It Ain't Me
TTITLE9=Christina Aguilera - Fighter
TTITLE10=Patrick Swayze Feat. Wendy Fraser - She's Like The Wind
TTITLE11=Sia - The Greatest
TTITLE12=Ilse Delange - I Still Cry
TTITLE13=Electric Light Orchestra - Mr. Blue Sky
TTITLE14=Little Mix - Shout Out To My Ex
TTITLE15=R. Kelly - I Believe I Can Fly
TTITLE16=James Arthur - Say You Won't Let Go
TTITLE17=John Denver - Take Me Home, Country Roads
EXTD=
EXTT0=
EXTT1=
EXTT2=
EXTT3=
EXTT4=
EXTT5=
EXTT6=
EXTT7=
EXTT8=
EXTT9=
EXTT10=
EXTT11=
EXTT12=
EXTT13=
EXTT14=
EXTT15=
EXTT16=
EXTT17=
PLAYORDER=
